<?xml version="1.0" encoding="UTF-8"?>
<svg id="Layer_1" data-name="Layer 1" xmlns="http://www.w3.org/2000/svg" viewBox="0 0 595.28 841.89">
  <defs>
    <style>
      .cls-1 {
        fill: none;
        stroke: #010101;
        stroke-linecap: round;
        stroke-linejoin: round;
      }

      .cls-2 {
        fill: #d2d0cf;
        stroke-width: 0px;
      }
    </style>
  </defs>
  <rect class="cls-2" x="300.4" y="455.26" width="20.51" height="21.58"/>
  <polyline class="cls-2" points="321.08 411.94 321.08 429.16 300.15 429.16 300.15 411.94 321.08 411.94"/>
  <path class="cls-2" d="m320.91,364.32v21.71s-20.76.75-20.76,0v-21.96l20.76.25Z"/>
  <line class="cls-1" x1="245.79" y1="368.62" x2="282.75" y2="368.62"/>
  <line class="cls-1" x1="282.75" y1="368.62" x2="282.75" y2="386.02"/>
  <line class="cls-1" x1="282.75" y1="386.02" x2="320.91" y2="386.02"/>
  <line class="cls-1" x1="300.15" y1="386.02" x2="300.15" y2="364.06"/>
  <line class="cls-1" x1="300.15" y1="364.06" x2="320.91" y2="364.06"/>
  <line class="cls-1" x1="320.91" y1="364.06" x2="320.91" y2="386.02"/>
  <line class="cls-1" x1="320.91" y1="368.62" x2="349.83" y2="368.62"/>
  <line class="cls-1" x1="349.83" y1="368.62" x2="349.83" y2="472.66"/>
  <line class="cls-1" x1="349.83" y1="472.66" x2="320.91" y2="472.66"/>
  <line class="cls-1" x1="320.91" y1="455.26" x2="320.91" y2="477.22"/>
  <line class="cls-1" x1="320.91" y1="477.22" x2="300.15" y2="477.22"/>
  <line class="cls-1" x1="300.15" y1="477.22" x2="300.15" y2="455.26"/>
  <line class="cls-1" x1="320.91" y1="455.26" x2="282.75" y2="455.26"/>
  <line class="cls-1" x1="282.75" y1="455.26" x2="282.75" y2="472.66"/>
  <line class="cls-1" x1="282.75" y1="472.66" x2="245.79" y2="472.66"/>
  <line class="cls-1" x1="245.79" y1="472.66" x2="245.79" y2="368.62"/>
  <line class="cls-1" x1="300.15" y1="411.94" x2="320.91" y2="411.94"/>
  <line class="cls-1" x1="320.91" y1="411.94" x2="320.91" y2="429.34"/>
  <line class="cls-1" x1="320.91" y1="429.34" x2="300.15" y2="429.34"/>
  <line class="cls-1" x1="300.15" y1="429.34" x2="300.15" y2="411.94"/>
</svg>