<?xml version="1.0" encoding="UTF-8"?>
<svg id="Layer_1" data-name="Layer 1" xmlns="http://www.w3.org/2000/svg" viewBox="0 0 595.28 841.89">
  <defs>
    <style>
      .cls-1 {
        fill: #fbb35e;
      }

      .cls-1, .cls-2, .cls-3, .cls-4, .cls-5 {
        stroke-width: 0px;
      }

      .cls-1, .cls-4, .cls-5 {
        opacity: .86;
      }

      .cls-6 {
        stroke-dasharray: 0 0 0 0 2.63 2.63 2.63 2.63;
      }

      .cls-6, .cls-7, .cls-8, .cls-9 {
        fill: none;
        stroke: #010101;
        stroke-linecap: round;
        stroke-linejoin: round;
      }

      .cls-6, .cls-8, .cls-9 {
        stroke-width: .25px;
      }

      .cls-2 {
        fill: #010101;
      }

      .cls-3 {
        fill: #d2d0cf;
      }

      .cls-4 {
        fill: #4e76ba;
      }

      .cls-8 {
        stroke-dasharray: 0 0 0 3 3 3;
      }

      .cls-5 {
        fill: #86b340;
      }
    </style>
  </defs>
  <polygon class="cls-3" points="215.49 394.49 231.33 402.04 224.73 416.8 209.13 409.83 215.49 394.49"/>
  <polygon class="cls-3" points="354.45 380.92 347.97 395.8 332.13 388.72 338.93 374.11 354.45 380.92"/>
  <path class="cls-3" d="m456.33,397.84s-14.03-6.6-14.39-6.6-6.97,14.76-6.97,14.76l13.98,6.6,7.38-14.34"/>
  <path class="cls-4" d="m259.29,383.2l-35.4,78.12s-14.34-7.39-14.76-6.6-6.6,15-6.6,15l-14.76-6.84-13.2,29.52-48.48-21.6,19.68-44.28,14.77,6.6,6.59-14.76,31.81,13.67,9.95-22.31,15.93,6.88,18.27-40.96,16.2,7.56Z"/>
  <polygon class="cls-1" points="380.85 364.24 346.77 440.8 332.01 434.2 325.53 448.96 310.65 442.36 297.57 472 232.17 443.05 259.29 383.2 322.17 409.9 331.97 388.84 347.56 395.8 365.01 357.28 380.85 364.24"/>
  <polyline class="cls-5" points="425.73 348.88 426.49 349.23 469.53 368.32 456.33 397.84 441.57 391.24 428.37 420.88 413.61 414.28 400.53 443.8 354.45 423.55 380.85 364.24 412.53 378.49"/>
  <polyline class="cls-2" points="332.85 455.87 334.22 463.72 325.77 459.55"/>
  <polyline class="cls-2" points="210 477.02 211.37 484.87 202.92 480.7"/>
  <line class="cls-7" x1="468.33" y1="370.96" x2="449.73" y2="412.6"/>
  <line class="cls-7" x1="363.93" y1="359.92" x2="354.45" y2="380.92"/>
  <line class="cls-7" x1="354.45" y1="380.92" x2="338.61" y2="373.96"/>
  <line class="cls-7" x1="338.61" y1="373.96" x2="322.17" y2="410.8"/>
  <line class="cls-7" x1="231.33" y1="402.04" x2="215.49" y2="394.96"/>
  <line class="cls-7" x1="215.49" y1="394.96" x2="198.81" y2="432.4"/>
  <line class="cls-7" x1="166.29" y1="420.4" x2="160.65" y2="433.12"/>
  <line class="cls-7" x1="144.93" y1="428.68" x2="126.57" y2="469.72"/>
  <line class="cls-7" x1="232.17" y1="442.84" x2="297.57" y2="472"/>
  <line class="cls-7" x1="297.57" y1="472" x2="304.17" y2="457.12"/>
  <line class="cls-7" x1="354.57" y1="423.4" x2="400.53" y2="443.8"/>
  <line class="cls-7" x1="400.53" y1="443.8" x2="407.01" y2="429.04"/>
  <line class="cls-7" x1="187.77" y1="462.88" x2="202.53" y2="469.72"/>
  <line class="cls-7" x1="198.81" y1="432.4" x2="167.13" y2="418.36"/>
  <line class="cls-7" x1="167.13" y1="418.36" x2="160.65" y2="433.12"/>
  <line class="cls-7" x1="145.77" y1="426.52" x2="126.09" y2="470.8"/>
  <line class="cls-7" x1="126.09" y1="470.8" x2="174.57" y2="492.4"/>
  <line class="cls-7" x1="174.57" y1="492.4" x2="187.77" y2="462.88"/>
  <g>
    <line class="cls-9" x1="181.17" y1="477.64" x2="182.53" y2="478.26"/>
    <line class="cls-6" x1="184.94" y1="479.33" x2="193.35" y2="483.09"/>
    <line class="cls-9" x1="194.56" y1="483.63" x2="195.93" y2="484.24"/>
  </g>
  <line class="cls-7" x1="202.53" y1="469.72" x2="209.13" y2="454.72"/>
  <line class="cls-7" x1="223.89" y1="461.32" x2="258.69" y2="383.2"/>
  <line class="cls-7" x1="297.57" y1="472" x2="304.17" y2="457.12"/>
  <line class="cls-7" x1="346.77" y1="440.8" x2="380.85" y2="364.24"/>
  <line class="cls-7" x1="400.53" y1="443.8" x2="407.01" y2="429.04"/>
  <line class="cls-7" x1="449.73" y1="412.6" x2="469.53" y2="368.32"/>
  <line class="cls-7" x1="469.53" y1="368.32" x2="425.73" y2="348.88"/>
  <line class="cls-7" x1="412.53" y1="378.4" x2="365.01" y2="357.28"/>
  <line class="cls-7" x1="365.01" y1="357.28" x2="354.45" y2="380.92"/>
  <line class="cls-7" x1="338.61" y1="373.96" x2="323.61" y2="407.68"/>
  <line class="cls-7" x1="243.09" y1="375.64" x2="231.33" y2="402.04"/>
  <line class="cls-7" x1="215.49" y1="394.96" x2="198.81" y2="432.4"/>
  <line class="cls-7" x1="167.13" y1="418.36" x2="160.65" y2="433.12"/>
  <line class="cls-7" x1="256.77" y1="381.76" x2="322.17" y2="410.8"/>
  <line class="cls-7" x1="256.77" y1="381.76" x2="243.09" y2="375.64"/>
  <line class="cls-7" x1="145.77" y1="426.52" x2="160.65" y2="433.12"/>
  <line class="cls-7" x1="425.73" y1="348.88" x2="412.53" y2="378.4"/>
  <line class="cls-7" x1="231.33" y1="402.04" x2="224.73" y2="416.8"/>
  <line class="cls-7" x1="224.73" y1="416.8" x2="208.89" y2="409.72"/>
  <line class="cls-7" x1="354.45" y1="380.92" x2="347.97" y2="395.8"/>
  <line class="cls-7" x1="347.97" y1="395.8" x2="332.13" y2="388.72"/>
  <line class="cls-7" x1="449.73" y1="412.6" x2="434.97" y2="406"/>
  <line class="cls-7" x1="441.57" y1="391.24" x2="434.97" y2="406"/>
  <line class="cls-7" x1="441.57" y1="391.24" x2="456.33" y2="397.84"/>
  <line class="cls-7" x1="209.13" y1="454.72" x2="223.89" y2="461.32"/>
  <line class="cls-7" x1="310.65" y1="442.36" x2="325.53" y2="448.96"/>
  <line class="cls-7" x1="297.57" y1="472" x2="310.65" y2="442.36"/>
  <line class="cls-7" x1="325.53" y1="448.96" x2="332.01" y2="434.2"/>
  <line class="cls-7" x1="332.01" y1="434.2" x2="346.77" y2="440.8"/>
  <line class="cls-7" x1="413.61" y1="414.28" x2="428.37" y2="420.88"/>
  <line class="cls-7" x1="400.53" y1="443.8" x2="413.61" y2="414.28"/>
  <line class="cls-7" x1="428.37" y1="420.88" x2="434.97" y2="406"/>
  <line class="cls-7" x1="434.97" y1="406" x2="449.73" y2="412.6"/>
  <polyline class="cls-8" points="195.93 484.24 202.53 469.72 217.29 476.57"/>
  <path class="cls-8" d="m232.17,442.84c0,.21-14.88,33.72-14.88,33.72"/>
  <g>
    <line class="cls-9" x1="304.41" y1="456.94" x2="305.77" y2="457.56"/>
    <line class="cls-6" x1="308.18" y1="458.63" x2="316.59" y2="462.39"/>
    <line class="cls-9" x1="317.8" y1="462.93" x2="319.17" y2="463.54"/>
  </g>
  <line class="cls-8" x1="325.47" y1="449.02" x2="340.23" y2="455.87"/>
  <path class="cls-8" d="m346.77,440.8c0,.21-6.54,15.06-6.54,15.06"/>
  <path class="cls-8" d="m325.44,448.96c0,.21-6.54,15.06-6.54,15.06"/>
  <g>
    <line class="cls-9" x1="407.19" y1="428.74" x2="408.55" y2="429.36"/>
    <line class="cls-6" x1="410.96" y1="430.43" x2="419.37" y2="434.19"/>
    <line class="cls-9" x1="420.58" y1="434.73" x2="421.95" y2="435.34"/>
  </g>
  <line class="cls-8" x1="428.25" y1="420.82" x2="443.01" y2="427.67"/>
  <path class="cls-8" d="m449.55,412.6c0,.21-6.54,15.06-6.54,15.06"/>
  <path class="cls-8" d="m428.22,420.76c0,.21-6.54,15.06-6.54,15.06"/>
</svg>